<?xml version="1.0" encoding="utf-8"?>
<!-- Generator: Adobe Illustrator 16.2.0, SVG Export Plug-In . SVG Version: 6.00 Build 0)  -->
<!DOCTYPE svg PUBLIC "-//W3C//DTD SVG 1.1//EN" "http://www.w3.org/Graphics/SVG/1.1/DTD/svg11.dtd">
<svg version="1.1" id="Layer_1" xmlns="http://www.w3.org/2000/svg" xmlns:xlink="http://www.w3.org/1999/xlink" x="0px" y="0px"
	 width="128px" height="128px" viewBox="0 0 128 128" enable-background="new 0 0 128 128" xml:space="preserve">
<circle fill="#44B39D" cx="64" cy="64" r="62.705"/>
<g>
	<defs>
		<ellipse id="SVGID_1_" cx="64" cy="64" rx="62.755" ry="62.705"/>
	</defs>
	<clipPath id="SVGID_2_">
		<use xlink:href="#SVGID_1_"  overflow="visible"/>
	</clipPath>
	<circle clip-path="url(#SVGID_2_)" fill="#47C9AF" cx="101.012" cy="87.34" r="62.725"/>
	<g clip-path="url(#SVGID_2_)">
		<path fill-rule="evenodd" clip-rule="evenodd" fill="#FFFFFF" d="M64.999,98.399c0.182-3.68-2.94-7.112-6.71-7.377
			c-3.828-0.269-6.929,2.619-7.156,6.665c-0.225,4.004,2.53,7.112,6.492,7.323C61.434,105.214,64.813,102.183,64.999,98.399z"/>
		<path fill-rule="evenodd" clip-rule="evenodd" fill="#FFFFFF" d="M59.326,128.014c-0.013-0.331-0.014-0.663-0.042-0.993
			c-0.279-3.309,1.42-7.916-2.857-9.003c-1.863-0.473-4.74,2.905-7.1,4.612c-0.932,0.674-2.201,2.522-3.17,2.723
			c-1.297,0.268-3.19-0.631-4.585-0.833c0.276-0.997,1.317-2.318,1.883-3.111c4.76-6.672,10.125-12.396,18.275-15.361
			c3.365-1.226,6.361-4.56,8.572-7.621c3.742-5.188,6.726-10.918,10.028-16.42c2.257-1.584,4.34,1.168,3.001,4.001
			c-1.146,2.872-2.054,5.871-3.482,8.596c-3.946,7.521-6.074,15.431-5.327,23.923c0.436,4.968,1.813,9.494-4.355,9.494
			C67.165,128.02,62.327,128.014,59.326,128.014z"/>
		<path fill-rule="evenodd" clip-rule="evenodd" fill="#FFFFFF" d="M64.999,98.399c-0.186,3.783-3.565,6.814-7.374,6.611
			c-3.962-0.211-6.717-3.319-6.492-7.323c0.227-4.046,3.328-6.934,7.156-6.665C62.059,91.287,65.181,94.72,64.999,98.399z"/>
	</g>
	<g clip-path="url(#SVGID_2_)">
		<path fill="#FFFFFF" d="M52.262,57.701v-3.898h25.016v3.898H52.262z"/>
	</g>
	<g clip-path="url(#SVGID_2_)">
		<path fill="#FFFFFF" d="M52.251,47.693v-3.897h25.016v3.897H52.251z"/>
	</g>
	<g clip-path="url(#SVGID_2_)">
		<path fill="#FFFFFF" d="M52.251,38.682v-3.898h25.016v3.898H52.251z"/>
	</g>
	<g clip-path="url(#SVGID_2_)">
		<path fill="#FFFFFF" d="M45.266,38.685v-3.848h3.847v3.848H45.266z"/>
	</g>
	<g clip-path="url(#SVGID_2_)">
		<path fill="#FFFFFF" d="M45.266,47.694v-3.847h3.847v3.847H45.266z"/>
	</g>
	<g clip-path="url(#SVGID_2_)">
		<path fill="#FFFFFF" d="M45.266,57.701v-3.847h3.847v3.847H45.266z"/>
	</g>
	<g clip-path="url(#SVGID_2_)">
		<path fill-rule="evenodd" clip-rule="evenodd" fill="#FFFFFF" d="M48.688,23.482c1.08,0,2.158,0,3.236,0
			c0.138,0.024,0.275,0.067,0.414,0.069c3.663,0.077,7.326,0.141,10.989,0.226c2.267,0.053,4.533,0.127,6.801,0.214
			c2.724,0.104,5.448,0.213,8.171,0.359c1.563,0.084,3.135,0.161,4.682,0.394c2.336,0.353,4.417,1.32,6.101,3.026
			c1.801,1.827,2.752,4.099,3.396,6.534c0.207,0.783,0.502,1.542,0.756,2.313c0,6.282,0,12.565,0,18.847
			c-0.035,0.064-0.084,0.125-0.103,0.193c-0.375,1.369-0.728,2.744-1.123,4.107c-1.441,4.968-4.646,7.681-9.777,8.265
			c-1.917,0.219-3.35,1.09-4.403,2.756c-1.2,1.896-2.567,3.688-3.853,5.53c-0.375,0.539-0.876,0.9-1.462,1.171
			c-0.338,0.155-0.653,0.354-0.979,0.535c-0.033,0-0.063,0-0.095,0c-0.18-0.435-0.399-0.858-0.529-1.308
			c-0.146-0.507-0.355-1.06-0.284-1.555c0.27-1.841,0.642-3.669,0.979-5.502c0.147-0.799,0.305-1.598,0.468-2.457
			c-0.229,0-0.385,0-0.54,0.001c-1.84,0.01-3.679,0.027-5.52,0.03c-7.705,0.012-15.41,0.038-23.117,0.009
			c-1.208-0.005-2.438-0.162-3.616-0.428c-3.016-0.681-5.094-2.62-6.645-5.208c-1.892-3.155-2.718-6.609-2.883-10.249
			c-0.026-0.566-0.066-1.132-0.1-1.698c0-2.158,0-4.315,0-6.473c0.025-0.186,0.069-0.372,0.072-0.559
			c0.016-0.919,0.014-1.838,0.031-2.756c0.048-2.66,0.208-5.301,0.949-7.882c1.134-3.955,3.592-6.557,7.683-7.313
			c2.603-0.482,5.259-0.683,7.894-0.993C47.079,23.587,47.884,23.547,48.688,23.482z M73.396,73.723
			c0.27-0.413,0.52-0.818,0.789-1.207c1.009-1.457,1.969-2.953,3.054-4.353c0.833-1.079,1.92-1.877,3.325-2.131
			c0.993-0.181,2.006-0.312,2.971-0.592c4.5-1.304,6.048-4.129,6.34-7.538c0.222-2.603,0.3-5.227,0.272-7.839
			c-0.053-5.168-0.206-10.335-0.357-15.501c-0.044-1.512-0.474-2.93-1.441-4.142c-1.221-1.527-2.88-2.33-4.747-2.634
			c-1.823-0.298-3.671-0.481-5.516-0.593c-2.435-0.147-4.877-0.229-7.317-0.239c-2.061-0.008-4.119,0.184-6.18,0.18
			c-1.498-0.003-3.02-0.052-4.492-0.311c-2.906-0.511-5.816-0.934-8.77-0.856c-2.12,0.055-4.243,0.174-6.353,0.375
			c-1.805,0.171-3.621,0.386-5.388,0.782c-3.088,0.692-5.178,2.548-5.796,5.743c-0.296,1.532-0.417,3.103-0.531,4.663
			c-0.192,2.654-0.387,5.311-0.45,7.97c-0.06,2.566-0.014,5.139,0.102,7.703c0.073,1.637,0.24,3.291,0.572,4.893
			c0.637,3.081,2.483,5.162,5.586,5.939c1.311,0.328,2.667,0.57,4.014,0.635c3.531,0.166,7.067,0.261,10.603,0.297
			c6.771,0.071,13.543,0.081,20.316,0.116c0.17,0.001,0.34,0,0.547,0c-0.522,2.669-1.026,5.289-1.554,7.902
			C72.922,73.351,72.949,73.604,73.396,73.723z"/>
	</g>
</g>
</svg>
